# MagicaVoxel @ Ephtracy

# group
g DroneRedBlue

# material
mtllib DroneRedBlue.mtl
usemtl palette

# normals
vn -1 0 0
vn 1 0 0
vn 0 0 1
vn 0 0 -1
vn 0 -1 0
vn 0 1 0

# texcoords
vt 0.775391 0.5
vt 0.841797 0.5
vt 0.849609 0.5
vt 0.958984 0.5
vt 0.978516 0.5
vt 0.994141 0.5

# verts
v -5 7 1
v -5 7 -2
v -5 7 -11
v -5 7 -14
v -5 8 1
v -5 8 -2
v -5 8 -11
v -5 8 -14
v -4 5 -5
v -4 5 -8
v -4 7 2
v -4 7 1
v -4 7 -2
v -4 7 -3
v -4 7 -4
v -4 7 -5
v -4 7 -8
v -4 7 -9
v -4 7 -10
v -4 7 -11
v -4 7 -14
v -4 7 -15
v -4 8 2
v -4 8 1
v -4 8 -2
v -4 8 -3
v -4 8 -4
v -4 8 -9
v -4 8 -10
v -4 8 -11
v -4 8 -14
v -4 8 -15
v -3 5 -0
v -3 5 -5
v -3 5 -8
v -3 5 -13
v -3 6 -1
v -3 6 -5
v -3 6 -8
v -3 6 -12
v -3 7 -0
v -3 7 -1
v -3 7 -12
v -3 7 -13
v -3 8 -0
v -3 8 -1
v -3 8 -12
v -3 8 -13
v -1 7 1
v -1 7 -2
v -1 7 -11
v -1 7 -14
v -1 8 1
v -1 8 -2
v -1 8 -11
v -1 8 -14
v 0 4 -5
v 0 4 -6
v 0 4 -7
v 0 4 -8
v 0 5 -5
v 0 5 -6
v 0 5 -7
v 0 5 -8
v 5 4 -6
v 5 4 -7
v 5 5 -6
v 5 5 -7
v 6 7 1
v 6 7 -2
v 6 7 -11
v 6 7 -14
v 6 8 1
v 6 8 -2
v 6 8 -11
v 6 8 -14
v 7 7 2
v 7 7 1
v 7 7 -2
v 7 7 -3
v 7 7 -4
v 7 7 -5
v 7 7 -8
v 7 7 -9
v 7 7 -10
v 7 7 -11
v 7 7 -14
v 7 7 -15
v 7 8 2
v 7 8 1
v 7 8 -2
v 7 8 -3
v 7 8 -4
v 7 8 -5
v 7 8 -8
v 7 8 -9
v 7 8 -10
v 7 8 -11
v 7 8 -14
v 7 8 -15
v 8 5 -0
v 8 5 -5
v 8 5 -8
v 8 5 -13
v 8 6 -1
v 8 6 -5
v 8 6 -8
v 8 6 -12
v 8 7 -0
v 8 7 -1
v 8 7 -12
v 8 7 -13
v 8 8 -0
v 8 8 -1
v 8 8 -12
v 8 8 -13
v 10 7 1
v 10 7 -2
v 10 7 -11
v 10 7 -14
v 10 8 1
v 10 8 -2
v 10 8 -11
v 10 8 -14
v -4 7 1
v -4 7 -2
v -4 7 -11
v -4 7 -14
v -4 8 1
v -4 8 -2
v -4 8 -11
v -4 8 -14
v -2 5 -0
v -2 5 -5
v -2 5 -8
v -2 5 -13
v -2 6 -1
v -2 6 -5
v -2 6 -8
v -2 6 -12
v -2 7 -0
v -2 7 -1
v -2 7 -12
v -2 7 -13
v -2 8 -0
v -2 8 -1
v -2 8 -12
v -2 8 -13
v -1 7 2
v -1 7 1
v -1 7 -2
v -1 7 -3
v -1 7 -4
v -1 7 -5
v -1 7 -8
v -1 7 -9
v -1 7 -10
v -1 7 -11
v -1 7 -14
v -1 7 -15
v -1 8 2
v -1 8 1
v -1 8 -2
v -1 8 -3
v -1 8 -4
v -1 8 -5
v -1 8 -8
v -1 8 -9
v -1 8 -10
v -1 8 -11
v -1 8 -14
v -1 8 -15
v 0 7 1
v 0 7 -2
v 0 7 -11
v 0 7 -14
v 0 8 1
v 0 8 -2
v 0 8 -11
v 0 8 -14
v 1 4 -6
v 1 4 -7
v 1 5 -6
v 1 5 -7
v 6 4 -5
v 6 4 -6
v 6 4 -7
v 6 4 -8
v 6 5 -5
v 6 5 -6
v 6 5 -7
v 6 5 -8
v 7 7 1
v 7 7 -2
v 7 7 -11
v 7 7 -14
v 7 8 1
v 7 8 -2
v 7 8 -11
v 7 8 -14
v 9 5 -0
v 9 5 -5
v 9 5 -8
v 9 5 -13
v 9 6 -1
v 9 6 -5
v 9 6 -8
v 9 6 -12
v 9 7 -0
v 9 7 -1
v 9 7 -6
v 9 7 -7
v 9 7 -12
v 9 7 -13
v 9 8 -0
v 9 8 -1
v 9 8 -6
v 9 8 -7
v 9 8 -12
v 9 8 -13
v 10 5 -5
v 10 5 -8
v 10 7 2
v 10 7 1
v 10 7 -2
v 10 7 -3
v 10 7 -4
v 10 7 -5
v 10 7 -6
v 10 7 -7
v 10 7 -8
v 10 7 -9
v 10 7 -10
v 10 7 -11
v 10 7 -14
v 10 7 -15
v 10 8 2
v 10 8 1
v 10 8 -2
v 10 8 -3
v 10 8 -4
v 10 8 -6
v 10 8 -7
v 10 8 -9
v 10 8 -10
v 10 8 -11
v 10 8 -14
v 10 8 -15
v 11 7 1
v 11 7 -2
v 11 7 -11
v 11 7 -14
v 11 8 1
v 11 8 -2
v 11 8 -11
v 11 8 -14
v -4 7 2
v -4 8 2
v -1 7 2
v -1 8 2
v 7 7 2
v 7 8 2
v 10 7 2
v 10 8 2
v -5 7 1
v -5 8 1
v -4 7 1
v -4 8 1
v -1 7 1
v -1 8 1
v 0 7 1
v 0 8 1
v 6 7 1
v 6 8 1
v 7 7 1
v 7 8 1
v 10 7 1
v 10 8 1
v 11 7 1
v 11 8 1
v -3 5 -0
v -3 7 -0
v -3 8 -0
v -2 5 -0
v -2 7 -0
v -2 8 -0
v 8 5 -0
v 8 7 -0
v 8 8 -0
v 9 5 -0
v 9 7 -0
v 9 8 -0
v -4 7 -2
v -4 8 -2
v -1 7 -2
v -1 8 -2
v 7 7 -2
v 7 8 -2
v 10 7 -2
v 10 8 -2
v -4 7 -4
v -4 8 -4
v -1 7 -4
v -1 8 -4
v 7 7 -4
v 7 8 -4
v 10 7 -4
v 10 8 -4
v -4 5 -5
v -4 7 -5
v -3 5 -5
v -3 6 -5
v -2 5 -5
v -2 6 -5
v -2 7 -5
v -1 7 -5
v -1 8 -5
v 0 4 -5
v 0 5 -5
v 6 4 -5
v 6 5 -5
v 7 7 -5
v 7 8 -5
v 8 5 -5
v 8 6 -5
v 8 7 -5
v 9 5 -5
v 9 6 -5
v 10 5 -5
v 10 7 -5
v 1 4 -7
v 1 5 -7
v 5 4 -7
v 5 5 -7
v 9 7 -7
v 9 8 -7
v 10 7 -7
v 10 8 -7
v -4 7 -10
v -4 8 -10
v -1 7 -10
v -1 8 -10
v 7 7 -10
v 7 8 -10
v 10 7 -10
v 10 8 -10
v -5 7 -11
v -5 8 -11
v -4 7 -11
v -4 8 -11
v -1 7 -11
v -1 8 -11
v 0 7 -11
v 0 8 -11
v 6 7 -11
v 6 8 -11
v 7 7 -11
v 7 8 -11
v 10 7 -11
v 10 8 -11
v 11 7 -11
v 11 8 -11
v -3 6 -12
v -3 7 -12
v -3 8 -12
v -2 6 -12
v -2 7 -12
v -2 8 -12
v 8 6 -12
v 8 7 -12
v 8 8 -12
v 9 6 -12
v 9 7 -12
v 9 8 -12
v -4 7 -14
v -4 8 -14
v -1 7 -14
v -1 8 -14
v 7 7 -14
v 7 8 -14
v 10 7 -14
v 10 8 -14
v -4 7 1
v -4 8 1
v -1 7 1
v -1 8 1
v 7 7 1
v 7 8 1
v 10 7 1
v 10 8 1
v -3 6 -1
v -3 7 -1
v -3 8 -1
v -2 6 -1
v -2 7 -1
v -2 8 -1
v 8 6 -1
v 8 7 -1
v 8 8 -1
v 9 6 -1
v 9 7 -1
v 9 8 -1
v -5 7 -2
v -5 8 -2
v -4 7 -2
v -4 8 -2
v -1 7 -2
v -1 8 -2
v 0 7 -2
v 0 8 -2
v 6 7 -2
v 6 8 -2
v 7 7 -2
v 7 8 -2
v 10 7 -2
v 10 8 -2
v 11 7 -2
v 11 8 -2
v -4 7 -3
v -4 8 -3
v -1 7 -3
v -1 8 -3
v 7 7 -3
v 7 8 -3
v 10 7 -3
v 10 8 -3
v 1 4 -6
v 1 5 -6
v 5 4 -6
v 5 5 -6
v 9 7 -6
v 9 8 -6
v 10 7 -6
v 10 8 -6
v -4 5 -8
v -4 7 -8
v -3 5 -8
v -3 6 -8
v -2 5 -8
v -2 6 -8
v -2 7 -8
v -1 7 -8
v -1 8 -8
v 0 4 -8
v 0 5 -8
v 6 4 -8
v 6 5 -8
v 7 7 -8
v 7 8 -8
v 8 5 -8
v 8 6 -8
v 8 7 -8
v 9 5 -8
v 9 6 -8
v 10 5 -8
v 10 7 -8
v -4 7 -9
v -4 8 -9
v -1 7 -9
v -1 8 -9
v 7 7 -9
v 7 8 -9
v 10 7 -9
v 10 8 -9
v -4 7 -11
v -4 8 -11
v -1 7 -11
v -1 8 -11
v 7 7 -11
v 7 8 -11
v 10 7 -11
v 10 8 -11
v -3 5 -13
v -3 7 -13
v -3 8 -13
v -2 5 -13
v -2 7 -13
v -2 8 -13
v 8 5 -13
v 8 7 -13
v 8 8 -13
v 9 5 -13
v 9 7 -13
v 9 8 -13
v -5 7 -14
v -5 8 -14
v -4 7 -14
v -4 8 -14
v -1 7 -14
v -1 8 -14
v 0 7 -14
v 0 8 -14
v 6 7 -14
v 6 8 -14
v 7 7 -14
v 7 8 -14
v 10 7 -14
v 10 8 -14
v 11 7 -14
v 11 8 -14
v -4 7 -15
v -4 8 -15
v -1 7 -15
v -1 8 -15
v 7 7 -15
v 7 8 -15
v 10 7 -15
v 10 8 -15
v 0 4 -5
v 6 4 -5
v 0 4 -6
v 1 4 -6
v 5 4 -6
v 6 4 -6
v 0 4 -7
v 1 4 -7
v 5 4 -7
v 6 4 -7
v 0 4 -8
v 6 4 -8
v -3 5 -0
v -2 5 -0
v 8 5 -0
v 9 5 -0
v -4 5 -5
v -3 5 -5
v -2 5 -5
v 0 5 -5
v 6 5 -5
v 8 5 -5
v 9 5 -5
v 10 5 -5
v -2 5 -6
v 0 5 -6
v 1 5 -6
v 5 5 -6
v 6 5 -6
v 8 5 -6
v -2 5 -7
v 0 5 -7
v 1 5 -7
v 5 5 -7
v 6 5 -7
v 8 5 -7
v -4 5 -8
v -3 5 -8
v -2 5 -8
v 0 5 -8
v 6 5 -8
v 8 5 -8
v 9 5 -8
v 10 5 -8
v -3 5 -13
v -2 5 -13
v 8 5 -13
v 9 5 -13
v -4 7 2
v -1 7 2
v 7 7 2
v 10 7 2
v -5 7 1
v -4 7 1
v -1 7 1
v 0 7 1
v 6 7 1
v 7 7 1
v 10 7 1
v 11 7 1
v -5 7 -2
v -4 7 -2
v -1 7 -2
v 0 7 -2
v 6 7 -2
v 7 7 -2
v 10 7 -2
v 11 7 -2
v -4 7 -3
v -1 7 -3
v 7 7 -3
v 10 7 -3
v -4 7 -4
v -1 7 -4
v 7 7 -4
v 10 7 -4
v -4 7 -5
v -2 7 -5
v -1 7 -5
v 7 7 -5
v 8 7 -5
v 10 7 -5
v -4 7 -8
v -2 7 -8
v -1 7 -8
v 7 7 -8
v 8 7 -8
v 10 7 -8
v -4 7 -9
v -1 7 -9
v 7 7 -9
v 10 7 -9
v -4 7 -10
v -1 7 -10
v 7 7 -10
v 10 7 -10
v -5 7 -11
v -4 7 -11
v -1 7 -11
v 0 7 -11
v 6 7 -11
v 7 7 -11
v 10 7 -11
v 11 7 -11
v -5 7 -14
v -4 7 -14
v -1 7 -14
v 0 7 -14
v 6 7 -14
v 7 7 -14
v 10 7 -14
v 11 7 -14
v -4 7 -15
v -1 7 -15
v 7 7 -15
v 10 7 -15
v -3 6 -1
v -2 6 -1
v 8 6 -1
v 9 6 -1
v -3 6 -5
v -2 6 -5
v 8 6 -5
v 9 6 -5
v -3 6 -8
v -2 6 -8
v 8 6 -8
v 9 6 -8
v -3 6 -12
v -2 6 -12
v 8 6 -12
v 9 6 -12
v 9 7 -6
v 10 7 -6
v 9 7 -7
v 10 7 -7
v -4 8 2
v -1 8 2
v 7 8 2
v 10 8 2
v -5 8 1
v -4 8 1
v -1 8 1
v 0 8 1
v 6 8 1
v 7 8 1
v 10 8 1
v 11 8 1
v -3 8 -0
v -2 8 -0
v 8 8 -0
v 9 8 -0
v -3 8 -1
v -2 8 -1
v 8 8 -1
v 9 8 -1
v -5 8 -2
v -4 8 -2
v -1 8 -2
v 0 8 -2
v 6 8 -2
v 7 8 -2
v 10 8 -2
v 11 8 -2
v -4 8 -3
v -1 8 -3
v 7 8 -3
v 10 8 -3
v -4 8 -4
v -1 8 -4
v 7 8 -4
v 10 8 -4
v -1 8 -5
v 7 8 -5
v 9 8 -6
v 10 8 -6
v 9 8 -7
v 10 8 -7
v -1 8 -8
v 7 8 -8
v -4 8 -9
v -1 8 -9
v 7 8 -9
v 10 8 -9
v -4 8 -10
v -1 8 -10
v 7 8 -10
v 10 8 -10
v -5 8 -11
v -4 8 -11
v -1 8 -11
v 0 8 -11
v 6 8 -11
v 7 8 -11
v 10 8 -11
v 11 8 -11
v -3 8 -12
v -2 8 -12
v 8 8 -12
v 9 8 -12
v -3 8 -13
v -2 8 -13
v 8 8 -13
v 9 8 -13
v -5 8 -14
v -4 8 -14
v -1 8 -14
v 0 8 -14
v 6 8 -14
v 7 8 -14
v 10 8 -14
v 11 8 -14
v -4 8 -15
v -1 8 -15
v 7 8 -15
v 10 8 -15

# faces
f 5/6/1 2/6/1 1/6/1
f 6/6/1 2/6/1 5/6/1
f 7/6/1 4/6/1 3/6/1
f 8/6/1 4/6/1 7/6/1
f 16/1/1 10/1/1 9/1/1
f 17/1/1 10/1/1 16/1/1
f 23/6/1 12/6/1 11/6/1
f 24/6/1 12/6/1 23/6/1
f 25/6/1 14/6/1 13/6/1
f 26/6/1 14/6/1 25/6/1
f 27/1/1 16/1/1 15/1/1
f 27/1/1 17/1/1 16/1/1
f 27/1/1 18/1/1 17/1/1
f 28/1/1 18/1/1 27/1/1
f 29/6/1 20/6/1 19/6/1
f 30/6/1 20/6/1 29/6/1
f 31/6/1 22/6/1 21/6/1
f 32/6/1 22/6/1 31/6/1
f 37/1/1 34/1/1 33/1/1
f 38/1/1 34/1/1 37/1/1
f 39/1/1 36/1/1 35/1/1
f 40/1/1 36/1/1 39/1/1
f 41/1/1 37/1/1 33/1/1
f 42/1/1 37/1/1 41/1/1
f 43/1/1 36/1/1 40/1/1
f 44/1/1 36/1/1 43/1/1
f 45/4/1 42/4/1 41/4/1
f 46/4/1 42/4/1 45/4/1
f 47/4/1 44/4/1 43/4/1
f 48/4/1 44/4/1 47/4/1
f 53/6/1 50/6/1 49/6/1
f 54/6/1 50/6/1 53/6/1
f 55/6/1 52/6/1 51/6/1
f 56/6/1 52/6/1 55/6/1
f 61/3/1 58/3/1 57/3/1
f 62/4/1 59/4/1 58/4/1
f 62/3/1 58/3/1 61/3/1
f 63/3/1 60/3/1 59/3/1
f 63/4/1 59/4/1 62/4/1
f 64/3/1 60/3/1 63/3/1
f 67/4/1 66/4/1 65/4/1
f 68/4/1 66/4/1 67/4/1
f 73/6/1 70/6/1 69/6/1
f 74/6/1 70/6/1 73/6/1
f 75/6/1 72/6/1 71/6/1
f 76/6/1 72/6/1 75/6/1
f 89/6/1 78/6/1 77/6/1
f 90/6/1 78/6/1 89/6/1
f 91/6/1 80/6/1 79/6/1
f 92/6/1 80/6/1 91/6/1
f 93/1/1 82/1/1 81/1/1
f 94/1/1 82/1/1 93/1/1
f 95/1/1 84/1/1 83/1/1
f 96/1/1 84/1/1 95/1/1
f 97/6/1 86/6/1 85/6/1
f 98/6/1 86/6/1 97/6/1
f 99/6/1 88/6/1 87/6/1
f 100/6/1 88/6/1 99/6/1
f 105/1/1 102/1/1 101/1/1
f 106/1/1 102/1/1 105/1/1
f 107/1/1 104/1/1 103/1/1
f 108/1/1 104/1/1 107/1/1
f 109/1/1 105/1/1 101/1/1
f 110/1/1 105/1/1 109/1/1
f 111/1/1 104/1/1 108/1/1
f 112/1/1 104/1/1 111/1/1
f 113/4/1 110/4/1 109/4/1
f 114/4/1 110/4/1 113/4/1
f 115/4/1 112/4/1 111/4/1
f 116/4/1 112/4/1 115/4/1
f 121/6/1 118/6/1 117/6/1
f 122/6/1 118/6/1 121/6/1
f 123/6/1 120/6/1 119/6/1
f 124/6/1 120/6/1 123/6/1
f 125/6/2 126/6/2 129/6/2
f 129/6/2 126/6/2 130/6/2
f 127/6/2 128/6/2 131/6/2
f 131/6/2 128/6/2 132/6/2
f 133/1/2 134/1/2 137/1/2
f 137/1/2 134/1/2 138/1/2
f 135/1/2 136/1/2 139/1/2
f 139/1/2 136/1/2 140/1/2
f 133/1/2 137/1/2 141/1/2
f 141/1/2 137/1/2 142/1/2
f 140/1/2 136/1/2 143/1/2
f 143/1/2 136/1/2 144/1/2
f 141/4/2 142/4/2 145/4/2
f 145/4/2 142/4/2 146/4/2
f 143/4/2 144/4/2 147/4/2
f 147/4/2 144/4/2 148/4/2
f 149/6/2 150/6/2 161/6/2
f 161/6/2 150/6/2 162/6/2
f 151/6/2 152/6/2 163/6/2
f 163/6/2 152/6/2 164/6/2
f 153/1/2 154/1/2 165/1/2
f 165/1/2 154/1/2 166/1/2
f 155/1/2 156/1/2 167/1/2
f 167/1/2 156/1/2 168/1/2
f 157/6/2 158/6/2 169/6/2
f 169/6/2 158/6/2 170/6/2
f 159/6/2 160/6/2 171/6/2
f 171/6/2 160/6/2 172/6/2
f 173/6/2 174/6/2 177/6/2
f 177/6/2 174/6/2 178/6/2
f 175/6/2 176/6/2 179/6/2
f 179/6/2 176/6/2 180/6/2
f 181/4/2 182/4/2 183/4/2
f 183/4/2 182/4/2 184/4/2
f 185/3/2 186/3/2 189/3/2
f 186/4/2 187/4/2 190/4/2
f 189/3/2 186/3/2 190/3/2
f 187/3/2 188/3/2 191/3/2
f 190/4/2 187/4/2 191/4/2
f 191/3/2 188/3/2 192/3/2
f 193/6/2 194/6/2 197/6/2
f 197/6/2 194/6/2 198/6/2
f 195/6/2 196/6/2 199/6/2
f 199/6/2 196/6/2 200/6/2
f 201/1/2 202/1/2 205/1/2
f 205/1/2 202/1/2 206/1/2
f 203/1/2 204/1/2 207/1/2
f 207/1/2 204/1/2 208/1/2
f 201/1/2 205/1/2 209/1/2
f 209/1/2 205/1/2 210/1/2
f 208/1/2 204/1/2 213/1/2
f 213/1/2 204/1/2 214/1/2
f 209/4/2 210/4/2 215/4/2
f 215/4/2 210/4/2 216/4/2
f 211/1/2 212/1/2 217/1/2
f 217/1/2 212/1/2 218/1/2
f 213/4/2 214/4/2 219/4/2
f 219/4/2 214/4/2 220/4/2
f 221/1/2 222/1/2 228/1/2
f 228/1/2 222/1/2 229/1/2
f 229/1/2 222/1/2 230/1/2
f 230/1/2 222/1/2 231/1/2
f 223/6/2 224/6/2 237/6/2
f 237/6/2 224/6/2 238/6/2
f 225/6/2 226/6/2 239/6/2
f 239/6/2 226/6/2 240/6/2
f 227/1/2 228/1/2 241/1/2
f 228/1/2 229/1/2 241/1/2
f 241/1/2 229/1/2 242/1/2
f 230/1/2 231/1/2 243/1/2
f 231/1/2 232/1/2 243/1/2
f 243/1/2 232/1/2 244/1/2
f 233/6/2 234/6/2 245/6/2
f 245/6/2 234/6/2 246/6/2
f 235/6/2 236/6/2 247/6/2
f 247/6/2 236/6/2 248/6/2
f 249/6/2 250/6/2 253/6/2
f 253/6/2 250/6/2 254/6/2
f 251/6/2 252/6/2 255/6/2
f 255/6/2 252/6/2 256/6/2
f 259/6/3 258/6/3 257/6/3
f 260/6/3 258/6/3 259/6/3
f 263/6/3 262/6/3 261/6/3
f 264/6/3 262/6/3 263/6/3
f 267/6/3 266/6/3 265/6/3
f 268/6/3 266/6/3 267/6/3
f 271/6/3 270/6/3 269/6/3
f 272/6/3 270/6/3 271/6/3
f 275/6/3 274/6/3 273/6/3
f 276/6/3 274/6/3 275/6/3
f 279/6/3 278/6/3 277/6/3
f 280/6/3 278/6/3 279/6/3
f 284/1/3 282/1/3 281/1/3
f 285/4/3 283/4/3 282/4/3
f 285/1/3 282/1/3 284/1/3
f 286/4/3 283/4/3 285/4/3
f 290/1/3 288/1/3 287/1/3
f 291/4/3 289/4/3 288/4/3
f 291/1/3 288/1/3 290/1/3
f 292/4/3 289/4/3 291/4/3
f 295/6/3 294/6/3 293/6/3
f 296/6/3 294/6/3 295/6/3
f 299/6/3 298/6/3 297/6/3
f 300/6/3 298/6/3 299/6/3
f 303/1/3 302/1/3 301/1/3
f 304/1/3 302/1/3 303/1/3
f 307/1/3 306/1/3 305/1/3
f 308/1/3 306/1/3 307/1/3
f 311/1/3 310/1/3 309/1/3
f 312/1/3 310/1/3 311/1/3
f 314/1/3 310/1/3 312/1/3
f 315/1/3 310/1/3 314/1/3
f 316/3/3 314/3/3 313/3/3
f 316/3/3 315/3/3 314/3/3
f 319/3/3 316/3/3 313/3/3
f 320/3/3 319/3/3 318/3/3
f 321/3/3 316/3/3 319/3/3
f 321/3/3 319/3/3 320/3/3
f 322/2/3 317/2/3 316/2/3
f 322/3/3 316/3/3 321/3/3
f 323/2/3 317/2/3 322/2/3
f 324/3/3 322/3/3 321/3/3
f 325/3/3 322/3/3 324/3/3
f 326/3/3 322/3/3 325/3/3
f 328/1/3 326/1/3 325/1/3
f 329/1/3 328/1/3 327/1/3
f 330/1/3 326/1/3 328/1/3
f 330/1/3 328/1/3 329/1/3
f 333/3/3 332/3/3 331/3/3
f 334/3/3 332/3/3 333/3/3
f 337/1/3 336/1/3 335/1/3
f 338/1/3 336/1/3 337/1/3
f 341/6/3 340/6/3 339/6/3
f 342/6/3 340/6/3 341/6/3
f 345/6/3 344/6/3 343/6/3
f 346/6/3 344/6/3 345/6/3
f 349/6/3 348/6/3 347/6/3
f 350/6/3 348/6/3 349/6/3
f 353/6/3 352/6/3 351/6/3
f 354/6/3 352/6/3 353/6/3
f 357/6/3 356/6/3 355/6/3
f 358/6/3 356/6/3 357/6/3
f 361/6/3 360/6/3 359/6/3
f 362/6/3 360/6/3 361/6/3
f 366/1/3 364/1/3 363/1/3
f 367/4/3 365/4/3 364/4/3
f 367/1/3 364/1/3 366/1/3
f 368/4/3 365/4/3 367/4/3
f 372/1/3 370/1/3 369/1/3
f 373/4/3 371/4/3 370/4/3
f 373/1/3 370/1/3 372/1/3
f 374/4/3 371/4/3 373/4/3
f 377/6/3 376/6/3 375/6/3
f 378/6/3 376/6/3 377/6/3
f 381/6/3 380/6/3 379/6/3
f 382/6/3 380/6/3 381/6/3
f 383/6/4 384/6/4 385/6/4
f 385/6/4 384/6/4 386/6/4
f 387/6/4 388/6/4 389/6/4
f 389/6/4 388/6/4 390/6/4
f 391/1/4 392/1/4 394/1/4
f 392/4/4 393/4/4 395/4/4
f 394/1/4 392/1/4 395/1/4
f 395/4/4 393/4/4 396/4/4
f 397/1/4 398/1/4 400/1/4
f 398/4/4 399/4/4 401/4/4
f 400/1/4 398/1/4 401/1/4
f 401/4/4 399/4/4 402/4/4
f 403/6/4 404/6/4 405/6/4
f 405/6/4 404/6/4 406/6/4
f 407/6/4 408/6/4 409/6/4
f 409/6/4 408/6/4 410/6/4
f 411/6/4 412/6/4 413/6/4
f 413/6/4 412/6/4 414/6/4
f 415/6/4 416/6/4 417/6/4
f 417/6/4 416/6/4 418/6/4
f 419/6/4 420/6/4 421/6/4
f 421/6/4 420/6/4 422/6/4
f 423/6/4 424/6/4 425/6/4
f 425/6/4 424/6/4 426/6/4
f 427/3/4 428/3/4 429/3/4
f 429/3/4 428/3/4 430/3/4
f 431/1/4 432/1/4 433/1/4
f 433/1/4 432/1/4 434/1/4
f 435/1/4 436/1/4 437/1/4
f 437/1/4 436/1/4 438/1/4
f 438/1/4 436/1/4 440/1/4
f 440/1/4 436/1/4 441/1/4
f 439/3/4 440/3/4 442/3/4
f 440/3/4 441/3/4 442/3/4
f 439/3/4 442/3/4 445/3/4
f 444/3/4 445/3/4 446/3/4
f 445/3/4 442/3/4 447/3/4
f 446/3/4 445/3/4 447/3/4
f 442/2/4 443/2/4 448/2/4
f 447/3/4 442/3/4 448/3/4
f 448/2/4 443/2/4 449/2/4
f 447/3/4 448/3/4 450/3/4
f 450/3/4 448/3/4 451/3/4
f 451/3/4 448/3/4 452/3/4
f 451/1/4 452/1/4 454/1/4
f 453/1/4 454/1/4 455/1/4
f 454/1/4 452/1/4 456/1/4
f 455/1/4 454/1/4 456/1/4
f 457/1/4 458/1/4 459/1/4
f 459/1/4 458/1/4 460/1/4
f 461/1/4 462/1/4 463/1/4
f 463/1/4 462/1/4 464/1/4
f 465/6/4 466/6/4 467/6/4
f 467/6/4 466/6/4 468/6/4
f 469/6/4 470/6/4 471/6/4
f 471/6/4 470/6/4 472/6/4
f 473/1/4 474/1/4 476/1/4
f 474/4/4 475/4/4 477/4/4
f 476/1/4 474/1/4 477/1/4
f 477/4/4 475/4/4 478/4/4
f 479/1/4 480/1/4 482/1/4
f 480/4/4 481/4/4 483/4/4
f 482/1/4 480/1/4 483/1/4
f 483/4/4 481/4/4 484/4/4
f 485/6/4 486/6/4 487/6/4
f 487/6/4 486/6/4 488/6/4
f 489/6/4 490/6/4 491/6/4
f 491/6/4 490/6/4 492/6/4
f 493/6/4 494/6/4 495/6/4
f 495/6/4 494/6/4 496/6/4
f 497/6/4 498/6/4 499/6/4
f 499/6/4 498/6/4 500/6/4
f 501/6/4 502/6/4 503/6/4
f 503/6/4 502/6/4 504/6/4
f 505/6/4 506/6/4 507/6/4
f 507/6/4 506/6/4 508/6/4
f 511/3/5 510/3/5 509/3/5
f 512/3/5 510/3/5 511/3/5
f 513/3/5 510/3/5 512/3/5
f 514/3/5 510/3/5 513/3/5
f 515/4/5 512/4/5 511/4/5
f 516/4/5 512/4/5 515/4/5
f 517/4/5 514/4/5 513/4/5
f 518/4/5 514/4/5 517/4/5
f 519/3/5 516/3/5 515/3/5
f 519/3/5 517/3/5 516/3/5
f 519/3/5 518/3/5 517/3/5
f 520/3/5 518/3/5 519/3/5
f 526/1/5 522/1/5 521/1/5
f 527/1/5 522/1/5 526/1/5
f 530/1/5 524/1/5 523/1/5
f 531/1/5 524/1/5 530/1/5
f 533/3/5 528/3/5 527/3/5
f 533/1/5 526/1/5 525/1/5
f 533/1/5 527/1/5 526/1/5
f 534/3/5 528/3/5 533/3/5
f 537/3/5 530/3/5 529/3/5
f 538/1/5 532/1/5 531/1/5
f 538/3/5 530/3/5 537/3/5
f 538/1/5 531/1/5 530/1/5
f 539/4/5 534/4/5 533/4/5
f 539/1/5 533/1/5 525/1/5
f 540/4/5 534/4/5 539/4/5
f 541/4/5 536/4/5 535/4/5
f 542/4/5 536/4/5 541/4/5
f 543/4/5 538/4/5 537/4/5
f 544/1/5 532/1/5 538/1/5
f 544/4/5 538/4/5 543/4/5
f 545/1/5 539/1/5 525/1/5
f 546/1/5 539/1/5 545/1/5
f 547/3/5 540/3/5 539/3/5
f 547/1/5 539/1/5 546/1/5
f 548/3/5 540/3/5 547/3/5
f 549/3/5 544/3/5 543/3/5
f 550/1/5 532/1/5 544/1/5
f 550/3/5 544/3/5 549/3/5
f 551/1/5 532/1/5 550/1/5
f 552/1/5 532/1/5 551/1/5
f 553/1/5 547/1/5 546/1/5
f 554/1/5 547/1/5 553/1/5
f 555/1/5 551/1/5 550/1/5
f 556/1/5 551/1/5 555/1/5
f 562/6/5 558/6/5 557/6/5
f 563/6/5 558/6/5 562/6/5
f 566/6/5 560/6/5 559/6/5
f 567/6/5 560/6/5 566/6/5
f 569/6/5 562/6/5 561/6/5
f 570/6/5 562/6/5 569/6/5
f 571/6/5 564/6/5 563/6/5
f 572/6/5 564/6/5 571/6/5
f 573/6/5 566/6/5 565/6/5
f 574/6/5 566/6/5 573/6/5
f 575/6/5 568/6/5 567/6/5
f 576/6/5 568/6/5 575/6/5
f 577/6/5 571/6/5 570/6/5
f 578/6/5 571/6/5 577/6/5
f 579/6/5 575/6/5 574/6/5
f 580/6/5 575/6/5 579/6/5
f 585/1/5 582/1/5 581/1/5
f 586/1/5 582/1/5 585/1/5
f 587/1/5 582/1/5 586/1/5
f 588/1/5 584/1/5 583/1/5
f 589/1/5 584/1/5 588/1/5
f 590/1/5 584/1/5 589/1/5
f 597/1/5 592/1/5 591/1/5
f 597/1/5 593/1/5 592/1/5
f 598/1/5 593/1/5 597/1/5
f 599/1/5 596/1/5 595/1/5
f 599/1/5 595/1/5 594/1/5
f 600/1/5 596/1/5 599/1/5
f 606/6/5 602/6/5 601/6/5
f 607/6/5 602/6/5 606/6/5
f 610/6/5 604/6/5 603/6/5
f 611/6/5 604/6/5 610/6/5
f 613/6/5 606/6/5 605/6/5
f 614/6/5 606/6/5 613/6/5
f 615/6/5 608/6/5 607/6/5
f 616/6/5 608/6/5 615/6/5
f 617/6/5 610/6/5 609/6/5
f 618/6/5 610/6/5 617/6/5
f 619/6/5 612/6/5 611/6/5
f 620/6/5 612/6/5 619/6/5
f 621/6/5 615/6/5 614/6/5
f 622/6/5 615/6/5 621/6/5
f 623/6/5 619/6/5 618/6/5
f 624/6/5 619/6/5 623/6/5
f 625/1/6 626/1/6 629/1/6
f 629/1/6 626/1/6 630/1/6
f 627/1/6 628/1/6 631/1/6
f 631/1/6 628/1/6 632/1/6
f 633/1/6 634/1/6 637/1/6
f 637/1/6 634/1/6 638/1/6
f 635/1/6 636/1/6 639/1/6
f 639/1/6 636/1/6 640/1/6
f 641/1/6 642/1/6 643/1/6
f 643/1/6 642/1/6 644/1/6
f 645/6/6 646/6/6 650/6/6
f 650/6/6 646/6/6 651/6/6
f 647/6/6 648/6/6 654/6/6
f 654/6/6 648/6/6 655/6/6
f 657/4/6 658/4/6 661/4/6
f 661/4/6 658/4/6 662/4/6
f 659/4/6 660/4/6 663/4/6
f 663/4/6 660/4/6 664/4/6
f 649/6/6 650/6/6 665/6/6
f 665/6/6 650/6/6 666/6/6
f 651/6/6 652/6/6 667/6/6
f 667/6/6 652/6/6 668/6/6
f 653/6/6 654/6/6 669/6/6
f 669/6/6 654/6/6 670/6/6
f 655/6/6 656/6/6 671/6/6
f 671/6/6 656/6/6 672/6/6
f 666/6/6 667/6/6 673/6/6
f 673/6/6 667/6/6 674/6/6
f 670/6/6 671/6/6 675/6/6
f 675/6/6 671/6/6 676/6/6
f 677/1/6 678/1/6 681/1/6
f 679/1/6 680/1/6 682/1/6
f 682/1/6 680/1/6 683/1/6
f 683/1/6 680/1/6 684/1/6
f 682/1/6 683/1/6 685/1/6
f 677/1/6 681/1/6 687/1/6
f 681/2/6 682/2/6 687/2/6
f 685/1/6 686/1/6 688/1/6
f 687/2/6 682/2/6 688/2/6
f 682/1/6 685/1/6 688/1/6
f 677/1/6 687/1/6 689/1/6
f 689/1/6 687/1/6 690/1/6
f 688/1/6 686/1/6 691/1/6
f 691/1/6 686/1/6 692/1/6
f 693/6/6 694/6/6 698/6/6
f 698/6/6 694/6/6 699/6/6
f 695/6/6 696/6/6 702/6/6
f 702/6/6 696/6/6 703/6/6
f 705/4/6 706/4/6 709/4/6
f 709/4/6 706/4/6 710/4/6
f 707/4/6 708/4/6 711/4/6
f 711/4/6 708/4/6 712/4/6
f 697/6/6 698/6/6 713/6/6
f 713/6/6 698/6/6 714/6/6
f 699/6/6 700/6/6 715/6/6
f 715/6/6 700/6/6 716/6/6
f 701/6/6 702/6/6 717/6/6
f 717/6/6 702/6/6 718/6/6
f 703/6/6 704/6/6 719/6/6
f 719/6/6 704/6/6 720/6/6
f 714/6/6 715/6/6 721/6/6
f 721/6/6 715/6/6 722/6/6
f 718/6/6 719/6/6 723/6/6
f 723/6/6 719/6/6 724/6/6
