<?xml version="1.0" encoding="UTF-8" standalone="no"?>
<!-- Created with Inkscape (http://www.inkscape.org/) -->

<svg
   xmlns:dc="http://purl.org/dc/elements/1.1/"
   xmlns:cc="http://creativecommons.org/ns#"
   xmlns:rdf="http://www.w3.org/1999/02/22-rdf-syntax-ns#"
   xmlns:svg="http://www.w3.org/2000/svg"
   xmlns="http://www.w3.org/2000/svg"
   xmlns:sodipodi="http://sodipodi.sourceforge.net/DTD/sodipodi-0.dtd"
   xmlns:inkscape="http://www.inkscape.org/namespaces/inkscape"
   width="1920px"
   height="1080px"
   viewBox="0 0 1920 1080"
   version="1.1"
   id="SVGRoot"
   inkscape:version="0.92.4 (5da689c313, 2019-01-14)"
   sodipodi:docname="Sprizzle.svg">
  <defs
     id="defs23" />
  <sodipodi:namedview
     id="base"
     pagecolor="#ffffff"
     bordercolor="#666666"
     borderopacity="1.0"
     inkscape:pageopacity="0.0"
     inkscape:pageshadow="2"
     inkscape:zoom="0.46093646"
     inkscape:cx="1152.9095"
     inkscape:cy="239.13039"
     inkscape:document-units="px"
     inkscape:current-layer="layer1"
     showgrid="false"
     inkscape:window-width="1920"
     inkscape:window-height="1051"
     inkscape:window-x="-9"
     inkscape:window-y="-9"
     inkscape:window-maximized="1" />
  <metadata
     id="metadata26">
    <rdf:RDF>
      <cc:Work
         rdf:about="">
        <dc:format>image/svg+xml</dc:format>
        <dc:type
           rdf:resource="http://purl.org/dc/dcmitype/StillImage" />
        <dc:title></dc:title>
      </cc:Work>
    </rdf:RDF>
  </metadata>
  <g
     inkscape:label="Layer 1"
     inkscape:groupmode="layer"
     id="layer1">
    <path
       sodipodi:type="spiral"
       style="fill:none;fill-rule:evenodd;stroke:#000000"
       id="path128"
       sodipodi:cx="405.6958"
       sodipodi:cy="257.76083"
       sodipodi:expansion="1"
       sodipodi:revolution="3"
       sodipodi:radius="272.74463"
       sodipodi:argument="-16.26066"
       sodipodi:t0="0"
       d="m 405.6958,257.76083 c -11.63894,7.17916 -15.4196,-12.14711 -11.93222,-19.34468 9.45056,-19.50495 36.60601,-16.56486 50.62158,-4.51977 25.07058,21.54585 19.32526,60.70511 -2.89268,81.8985 -32.60572,31.10215 -85.16168,22.25202 -113.1754,-10.30515 -37.33789,-43.39357 -25.25475,-109.74915 17.71759,-144.4523 54.07632,-43.67038 134.4,-28.2978 175.72921,25.13005 50.05522,64.70829 31.3644,159.08673 -32.5425,207.00612 -75.31207,56.47134 -183.79586,34.44579 -238.28302,-39.95496 -62.90759,-85.89863 -37.53708,-208.51996 47.36741,-269.559933 96.47389,-69.357501 233.25454,-40.635258 300.83684,54.779873 75.81713,107.04136 43.73844,257.99677 -62.19233,332.11374 -117.60324,82.28389 -282.74475,46.84537 -363.39065,-69.60478" />
  </g>
</svg>
